<svg id="Layer_1" data-name="Layer 1" xmlns="http://www.w3.org/2000/svg" xmlns:xlink="http://www.w3.org/1999/xlink" viewBox="0 0 596 283.3"><defs><style>.cls-1{fill:url(#linear-gradient);}.cls-2{fill:url(#linear-gradient-2);}.cls-3{fill:#fff;}.cls-4{fill:url(#linear-gradient-3);}.cls-5{fill:url(#linear-gradient-4);}.cls-6{fill:url(#linear-gradient-5);}.cls-7{fill:url(#linear-gradient-6);}.cls-8{fill:url(#linear-gradient-7);}.cls-11,.cls-14,.cls-9{fill-rule:evenodd;}.cls-9{fill:url(#linear-gradient-8);}.cls-10{fill:url(#linear-gradient-9);}.cls-11{fill:url(#linear-gradient-10);}.cls-12{fill:url(#linear-gradient-11);}.cls-13{fill:url(#linear-gradient-12);}.cls-14{fill:url(#linear-gradient-13);}</style><linearGradient id="linear-gradient" x1="467.21" y1="267.1" x2="612.99" y2="267.1" gradientUnits="userSpaceOnUse"><stop offset="0" stop-color="#0073a1"/><stop offset="0.2" stop-color="#13124a"/><stop offset="0.4" stop-color="#a5005b"/><stop offset="0.6" stop-color="#a71717"/><stop offset="0.8" stop-color="#c0b300"/><stop offset="1" stop-color="#00592c"/></linearGradient><linearGradient id="linear-gradient-2" x1="117.44" y1="267.1" x2="-4.01" y2="267.1" xlink:href="#linear-gradient"/><linearGradient id="linear-gradient-3" x1="452.57" y1="488.12" x2="590.37" y2="603.74" gradientUnits="userSpaceOnUse"><stop offset="0.01" stop-color="#00afe6"/><stop offset="0.13" stop-color="#1f1e77"/><stop offset="0.38" stop-color="#d20075"/><stop offset="0.53" stop-color="#d41d1d"/><stop offset="0.7" stop-color="#eddd00"/><stop offset="1" stop-color="#008643"/></linearGradient><linearGradient id="linear-gradient-4" x1="447.35" y1="496.14" x2="481.53" y2="580.09" gradientUnits="userSpaceOnUse"><stop offset="0.04" stop-color="#3885ba"/><stop offset="0.05" stop-color="#3781b7"/><stop offset="0.24" stop-color="#254a8f"/><stop offset="0.33" stop-color="#1e3480"/><stop offset="0.4" stop-color="#1b2a79"/><stop offset="0.53" stop-color="#161c6f"/><stop offset="0.59" stop-color="#15176c"/><stop offset="0.71" stop-color="#131268"/><stop offset="0.75" stop-color="#1a1167"/><stop offset="0.8" stop-color="#2c0f64"/><stop offset="0.86" stop-color="#4a0b5e"/><stop offset="0.93" stop-color="#740757"/><stop offset="0.93" stop-color="#780656"/><stop offset="1" stop-color="#a5005b"/></linearGradient><linearGradient id="linear-gradient-5" x1="425.35" y1="377.32" x2="673.17" y2="625.14" gradientUnits="userSpaceOnUse"><stop offset="0" stop-color="#0073a1"/><stop offset="0.2" stop-color="#13124a"/><stop offset="0.29" stop-color="#a5005b"/><stop offset="0.48" stop-color="#a71717"/><stop offset="0.7" stop-color="#c0b300"/><stop offset="0.91" stop-color="#00662c"/></linearGradient><linearGradient id="linear-gradient-6" x1="462.61" y1="476.16" x2="600.41" y2="591.78" gradientUnits="userSpaceOnUse"><stop offset="0" stop-color="#0094ce"/><stop offset="0.15" stop-color="#1f1e77"/><stop offset="0.32" stop-color="#d20075"/><stop offset="0.55" stop-color="#d41d1d"/><stop offset="0.57" stop-color="#da4817"/><stop offset="0.61" stop-color="#e07d0f"/><stop offset="0.64" stop-color="#e6a608"/><stop offset="0.67" stop-color="#eac404"/><stop offset="0.69" stop-color="#ecd701"/><stop offset="0.71" stop-color="#eddd00"/><stop offset="0.77" stop-color="#b8c90f"/><stop offset="0.91" stop-color="#339935"/><stop offset="0.97" stop-color="#008643"/></linearGradient><linearGradient id="linear-gradient-7" x1="492.17" y1="589.41" x2="604.96" y2="425.19" gradientUnits="userSpaceOnUse"><stop offset="0.02" stop-color="#2c329b"/><stop offset="0.04" stop-color="#442c9b"/><stop offset="0.08" stop-color="#6b219c"/><stop offset="0.12" stop-color="#88199c"/><stop offset="0.15" stop-color="#9a159c"/><stop offset="0.18" stop-color="#a0139c"/><stop offset="0.32" stop-color="#fd008c"/><stop offset="0.42" stop-color="#fc2222"/><stop offset="0.62" stop-color="#fe0"/><stop offset="0.71" stop-color="#00b5fd"/></linearGradient><linearGradient id="linear-gradient-8" x1="539.04" y1="406.45" x2="590.79" y2="458.2" gradientUnits="userSpaceOnUse"><stop offset="0" stop-color="#00a8de"/><stop offset="0" stop-color="#333391"/><stop offset="0.56" stop-color="#e91388"/><stop offset="1" stop-color="#eb2d2e"/></linearGradient><linearGradient id="linear-gradient-9" x1="310.5" y1="18.59" x2="322.66" y2="30.75" gradientUnits="userSpaceOnUse"><stop offset="0" stop-color="#00a8de"/><stop offset="0" stop-color="#333391"/><stop offset="0.1" stop-color="#4d2e90"/><stop offset="0.33" stop-color="#84258d"/><stop offset="0.54" stop-color="#b01d8b"/><stop offset="0.73" stop-color="#cf1889"/><stop offset="0.89" stop-color="#e21488"/><stop offset="1" stop-color="#e91388"/></linearGradient><linearGradient id="linear-gradient-10" x1="538.39" y1="446.47" x2="538.39" y2="516.03" gradientUnits="userSpaceOnUse"><stop offset="0.11" stop-color="#29a800"/><stop offset="0.8" stop-color="#fde92b"/></linearGradient><linearGradient id="linear-gradient-11" x1="313.41" y1="50.47" x2="313.41" y2="70.39" gradientUnits="userSpaceOnUse"><stop offset="0.16" stop-color="#47b200"/><stop offset="0.26" stop-color="#4db401"/><stop offset="0.39" stop-color="#5eb905"/><stop offset="0.54" stop-color="#79c10c"/><stop offset="0.7" stop-color="#a0cd15"/><stop offset="0.87" stop-color="#d1dc21"/><stop offset="1" stop-color="#fde92b"/></linearGradient><linearGradient id="linear-gradient-12" x1="277.2" y1="3.28" x2="264.52" y2="25.24" gradientUnits="userSpaceOnUse"><stop offset="0.1" stop-color="#00499e"/><stop offset="1" stop-color="#00a8de"/></linearGradient><linearGradient id="linear-gradient-13" x1="521.51" y1="421.57" x2="481.29" y2="491.25" gradientUnits="userSpaceOnUse"><stop offset="0" stop-color="#00499e"/><stop offset="0.56" stop-color="#00a8de"/><stop offset="1" stop-color="#00d813"/></linearGradient></defs><rect class="cls-1" x="477.62" y="263.63" width="113.12" height="6.94"/><rect class="cls-2" x="2.23" y="263.63" width="114.51" height="6.94"/><path class="cls-3" d="M361.8,666.73v9.1c0,2,.22,3.23.65,3.68a3.37,3.37,0,0,0,2.65,1h1.21v.86h-13.4v-.86h1.17a3.17,3.17,0,0,0,2.83-1.27,7.58,7.58,0,0,0,.48-3.41V655.61c0-2-.21-3.17-.62-3.65a3.44,3.44,0,0,0-2.69-1h-1.17v-.86h11.47a19.92,19.92,0,0,1,6.62.9,8.86,8.86,0,0,1,2.25,1.15,8.49,8.49,0,0,1,1.83,1.76,8.67,8.67,0,0,1,1.22,2.24,7.53,7.53,0,0,1,.45,2.63,8.92,8.92,0,0,1-.66,3.48,7.41,7.41,0,0,1-1.89,2.72,8.9,8.9,0,0,1-3,1.78,12.35,12.35,0,0,1-4.1.63A26.32,26.32,0,0,1,361.8,666.73Zm0-1.34c.82.16,1.55.28,2.17.36a12.88,12.88,0,0,0,1.62.12,5.19,5.19,0,0,0,2.27-.5,5.9,5.9,0,0,0,1.88-1.38,6.36,6.36,0,0,0,1.27-2.11,7.64,7.64,0,0,0,.47-2.69,8.41,8.41,0,0,0-.52-3.07,6.62,6.62,0,0,0-1.41-2.27,6,6,0,0,0-2.1-1.41,7.05,7.05,0,0,0-2.62-.48,14.27,14.27,0,0,0-3,.41Z" transform="translate(-228.23 -398.8)"/><path class="cls-3" d="M406.06,670.9H393.94l-2.14,4.93a8.11,8.11,0,0,0-.75,2.72,1.92,1.92,0,0,0,.12.69,1.34,1.34,0,0,0,.51.57,3.86,3.86,0,0,0,1.1.44,9.13,9.13,0,0,0,1.88.26v.86h-9.85v-.86a6.56,6.56,0,0,0,1.89-.51,3.78,3.78,0,0,0,1.25-1,6.51,6.51,0,0,0,.94-1.57c.29-.64.64-1.43,1.05-2.38l11-25.73h.79l10.88,26a21,21,0,0,0,1.23,2.6,6.23,6.23,0,0,0,1.17,1.53,3.31,3.31,0,0,0,1.31.76,6.75,6.75,0,0,0,1.7.24v.86H405.69v-.86a4.48,4.48,0,0,0,2.53-.6,1.63,1.63,0,0,0,.67-1.29,11,11,0,0,0-.93-3.24Zm-.65-1.72-5.31-12.64-5.44,12.64Z" transform="translate(-228.23 -398.8)"/><path class="cls-3" d="M460.87,681.37h-8.34l-10.6-14.64-1.06.06h-1.49l-.73-.06v9.1a11.73,11.73,0,0,0,.23,2.6,3.09,3.09,0,0,0,.65,1.41,1.8,1.8,0,0,0,1,.57,8.15,8.15,0,0,0,1.37.1h1.24v.86H429.73v-.86h1.21a3.21,3.21,0,0,0,2.82-1.27,7.58,7.58,0,0,0,.48-3.41V655.61c0-1.93-.21-3.15-.65-3.65a3.32,3.32,0,0,0-2.65-1h-1.21v-.86h11.4c1.68,0,3.13.07,4.34.19a15.42,15.42,0,0,1,3,.57,8.9,8.9,0,0,1,2.2,1,7.79,7.79,0,0,1,1.81,1.62,7.59,7.59,0,0,1,1.23,2.12,7.16,7.16,0,0,1,.44,2.51,7.33,7.33,0,0,1-1.86,5,10.72,10.72,0,0,1-5.82,3l6.44,9c.76,1,1.43,1.89,2,2.55a8.76,8.76,0,0,0,1.76,1.59,6.29,6.29,0,0,0,1.86.86,14.14,14.14,0,0,0,2.32.41Zm-22.22-16.08h.78c.22,0,.39,0,.53,0a13.32,13.32,0,0,0,3.93-.52,8.06,8.06,0,0,0,2.82-1.44,6,6,0,0,0,1.71-2.19,6.56,6.56,0,0,0,.57-2.74,7.08,7.08,0,0,0-.49-2.67,6.12,6.12,0,0,0-1.37-2.1A6.31,6.31,0,0,0,445,652.3a7.47,7.47,0,0,0-2.72-.48,18.88,18.88,0,0,0-3.62.45Z" transform="translate(-228.23 -398.8)"/><path class="cls-3" d="M480.71,651.78v12.37h6.86a8.56,8.56,0,0,0,2.44-.28,3.27,3.27,0,0,0,1.47-.82,3.08,3.08,0,0,0,.74-1.41,12.11,12.11,0,0,0,.28-2h.86v10.89h-.86a20.8,20.8,0,0,0-.4-2.24,3.22,3.22,0,0,0-.72-1.43,2.79,2.79,0,0,0-1.4-.76,10.34,10.34,0,0,0-2.41-.22h-6.86v10.33c0,.78,0,1.4,0,1.86a2.06,2.06,0,0,0,.27,1.05,1.15,1.15,0,0,0,.76.47,8.33,8.33,0,0,0,1.52.1h5.3c.9,0,1.66,0,2.28-.07a7.48,7.48,0,0,0,1.6-.27,4.37,4.37,0,0,0,1.19-.57,11.18,11.18,0,0,0,1.1-.91,17.58,17.58,0,0,0,2.93-4.31h.93l-2.72,7.85H471.79v-.86h1.1a4.33,4.33,0,0,0,.93-.1,5.2,5.2,0,0,0,.92-.29,3.29,3.29,0,0,0,.77-.5,1.78,1.78,0,0,0,.49-.73,10.79,10.79,0,0,0,.27-3V655.54c0-2-.19-3.23-.58-3.69a3.62,3.62,0,0,0-2.8-.93h-1.1v-.86h24.12v6.86h-.56a16.56,16.56,0,0,0-.74-2.71,3.7,3.7,0,0,0-1.05-1.56,3.23,3.23,0,0,0-1.67-.71,18.18,18.18,0,0,0-2.6-.16Z" transform="translate(-228.23 -398.8)"/><path class="cls-3" d="M509.44,650.06h8.48l19.15,23.49v-18a11.18,11.18,0,0,0-.22-2.51,3,3,0,0,0-.66-1.38,1.88,1.88,0,0,0-1.05-.57,7.42,7.42,0,0,0-1.41-.12h-1.1v-.86h10.92v.86h-1.14a6.92,6.92,0,0,0-1.45.14,1.87,1.87,0,0,0-1,.62,3.28,3.28,0,0,0-.62,1.38,11.19,11.19,0,0,0-.21,2.44v26.39h-.82l-20.64-25.21V676a11,11,0,0,0,.23,2.53,3.14,3.14,0,0,0,.63,1.36,1.77,1.77,0,0,0,1,.55,8.49,8.49,0,0,0,1.41.1h1.1v.86H511.17v-.86h1.1a6.31,6.31,0,0,0,1.45-.14,2,2,0,0,0,1-.6,2.92,2.92,0,0,0,.63-1.36,11.12,11.12,0,0,0,.21-2.44V654.2c-.46-.56-.84-1-1.15-1.31a8.63,8.63,0,0,0-.88-.8,5,5,0,0,0-.9-.51q-.48-.21-1.2-.45a7.46,7.46,0,0,0-2-.21Z" transform="translate(-228.23 -398.8)"/><path class="cls-3" d="M581.92,650.06v7.37h-.51a6.67,6.67,0,0,0-1.74-4.18,5.82,5.82,0,0,0-4-1.22h-4.41V676a10.78,10.78,0,0,0,.23,2.49,3,3,0,0,0,.64,1.36,1.82,1.82,0,0,0,1,.57,7.64,7.64,0,0,0,1.45.12h1.06v.86H562.39v-.86h1.1a6.25,6.25,0,0,0,1.45-.14,1.87,1.87,0,0,0,1-.6,3.14,3.14,0,0,0,.64-1.36,10.45,10.45,0,0,0,.22-2.44V652h-3.75a12.5,12.5,0,0,0-2.5.22,4.43,4.43,0,0,0-1.87.83,4.09,4.09,0,0,0-1.26,1.65,8,8,0,0,0-.57,2.7H556v-7.37Z" transform="translate(-228.23 -398.8)"/><path class="cls-3" d="M608.38,680.51v.86H595v-.86h1.1a8.09,8.09,0,0,0,1.47-.12,1.83,1.83,0,0,0,1.05-.58,3.3,3.3,0,0,0,.63-1.42,11.46,11.46,0,0,0,.23-2.56V655.61c0-.71,0-1.31-.05-1.78a6.8,6.8,0,0,0-.18-1.15,1.7,1.7,0,0,0-.36-.71,3.33,3.33,0,0,0-.65-.5,4.57,4.57,0,0,0-2.14-.55H595v-.86h13.4v.86h-1.1a7.19,7.19,0,0,0-1.47.14,1.92,1.92,0,0,0-1,.6,3.3,3.3,0,0,0-.64,1.42,12,12,0,0,0-.22,2.53v20.22c0,.73,0,1.33,0,1.79a4.74,4.74,0,0,0,.17,1.14,1.62,1.62,0,0,0,.39.7,3.53,3.53,0,0,0,.68.5,4.12,4.12,0,0,0,2.1.55Z" transform="translate(-228.23 -398.8)"/><path class="cls-3" d="M619.3,650.06h8.48l19.15,23.49v-18a11.09,11.09,0,0,0-.23-2.51,3,3,0,0,0-.65-1.38,2,2,0,0,0-1-.57,7.49,7.49,0,0,0-1.41-.12h-1.11v-.86H653.4v.86h-1.13a6.85,6.85,0,0,0-1.45.14,1.84,1.84,0,0,0-1,.62,3.05,3.05,0,0,0-.62,1.38,11.19,11.19,0,0,0-.21,2.44v26.39h-.83L627.5,656.68V676a11.14,11.14,0,0,0,.22,2.53,3.14,3.14,0,0,0,.64,1.36,1.77,1.77,0,0,0,1,.55,8.7,8.7,0,0,0,1.42.1h1.1v.86H621v-.86h1.11a6.16,6.16,0,0,0,1.44-.14,1.92,1.92,0,0,0,1-.6,2.93,2.93,0,0,0,.64-1.36,11.12,11.12,0,0,0,.21-2.44V654.2c-.46-.56-.85-1-1.16-1.31a7.69,7.69,0,0,0-.88-.8,4.57,4.57,0,0,0-.89-.51c-.32-.14-.72-.29-1.21-.45a7.38,7.38,0,0,0-2-.21Z" transform="translate(-228.23 -398.8)"/><path class="cls-3" d="M693.43,649.37l.83,9.85h-.83a12.35,12.35,0,0,0-4-6.28,10.25,10.25,0,0,0-6.32-2,10.63,10.63,0,0,0-8.61,4.08,13.6,13.6,0,0,0-2.31,4.52,19.15,19.15,0,0,0-.79,5.63,18.88,18.88,0,0,0,1.75,8.16,14.07,14.07,0,0,0,2,3.21,12,12,0,0,0,2.5,2.22,10.41,10.41,0,0,0,2.8,1.29,11,11,0,0,0,2.95.41,12.87,12.87,0,0,0,6.47-1.72v-9.06a16.7,16.7,0,0,0-.08-1.91,4.18,4.18,0,0,0-.28-1.17,1.68,1.68,0,0,0-.46-.66,4.44,4.44,0,0,0-.66-.43,6.37,6.37,0,0,0-2.61-.38v-.89h12.12v.89h-.58a4.41,4.41,0,0,0-1.35.18,1.74,1.74,0,0,0-.91.65,3.16,3.16,0,0,0-.52,1.38,14.75,14.75,0,0,0-.15,2.34v9.58a28.34,28.34,0,0,1-2.64,1.25,17.15,17.15,0,0,1-2.6.85,23.06,23.06,0,0,1-5.75.69,20,20,0,0,1-7.11-1.21,16.17,16.17,0,0,1-5.46-3.34,14.81,14.81,0,0,1-3.52-5,16,16,0,0,1-1.24-6.3,17.74,17.74,0,0,1,8.44-14.85,16,16,0,0,1,8.13-2c.62,0,1.17,0,1.65,0a13.51,13.51,0,0,1,1.5.21,13.86,13.86,0,0,1,1.69.45c.61.19,1.35.45,2.22.77a5.12,5.12,0,0,0,1.76.49.91.91,0,0,0,.72-.4,2.94,2.94,0,0,0,.38-1.57Z" transform="translate(-228.23 -398.8)"/><path class="cls-3" d="M228.23,631.43v-1h1.39a7.35,7.35,0,0,0,1.64-.16,2.06,2.06,0,0,0,1.19-.72,3.81,3.81,0,0,0,.74-1.63,13.14,13.14,0,0,0,.26-2.91v-23.4c0-2.24-.25-3.64-.76-4.23a3.82,3.82,0,0,0-3.07-1.19h-1.39v-1H243q8.06,0,12.36,1.87a14.77,14.77,0,0,1,6.81,6.14,19,19,0,0,1,2.6,9.93,20.34,20.34,0,0,1-1.3,7.37,15.42,15.42,0,0,1-3.87,5.78,17.63,17.63,0,0,1-6.36,3.79,25.93,25.93,0,0,1-8.81,1.36Zm10.36-2.63a26.33,26.33,0,0,0,5.66.75,14.4,14.4,0,0,0,5.71-1.13,13.49,13.49,0,0,0,4.56-3.23,15,15,0,0,0,3-5.08,19.41,19.41,0,0,0,1.1-6.7,19.93,19.93,0,0,0-1.08-6.76,14.53,14.53,0,0,0-3-5.1,13.08,13.08,0,0,0-4.62-3.21,15,15,0,0,0-5.86-1.12,22.55,22.55,0,0,0-5.47.8Z" transform="translate(-228.23 -398.8)"/><path class="cls-3" d="M282.38,630.43v1H266.87v-1h1.27a9.49,9.49,0,0,0,1.7-.14,2,2,0,0,0,1.21-.68,3.7,3.7,0,0,0,.74-1.63,13.62,13.62,0,0,0,.26-3v-23.4c0-.83,0-1.51-.06-2.06a7.54,7.54,0,0,0-.2-1.33,1.82,1.82,0,0,0-.42-.82,3.42,3.42,0,0,0-.75-.58,5.28,5.28,0,0,0-2.48-.63h-1.27v-1h15.51v1H281.1a8.49,8.49,0,0,0-1.69.15,2.21,2.21,0,0,0-1.22.7,3.74,3.74,0,0,0-.74,1.64,13.34,13.34,0,0,0-.26,2.93V625c0,.85,0,1.54,0,2.07a6.14,6.14,0,0,0,.2,1.32,1.92,1.92,0,0,0,.46.81,3.59,3.59,0,0,0,.78.58,4.75,4.75,0,0,0,2.43.64Z" transform="translate(-228.23 -398.8)"/><path class="cls-3" d="M321.26,595.19v1a6.47,6.47,0,0,0-2,.61,5.44,5.44,0,0,0-1.41,1.06,6.59,6.59,0,0,0-1.1,1.53c-.32.6-.64,1.29-1,2.06L303.2,632.26h-1l-13.56-31.21a21.53,21.53,0,0,0-1.09-2.37,5.18,5.18,0,0,0-1.1-1.42,3.61,3.61,0,0,0-1.43-.74,14.65,14.65,0,0,0-2.12-.33v-1h14.79v1a13.22,13.22,0,0,0-2.07.33,3.62,3.62,0,0,0-1.21.54,1.57,1.57,0,0,0-.56.7,2.32,2.32,0,0,0-.14.86,12,12,0,0,0,1.23,4.18L304.15,624l8.53-21a14.14,14.14,0,0,0,1.28-4.26,2.07,2.07,0,0,0-.88-1.58,5.89,5.89,0,0,0-3-1v-1Z" transform="translate(-228.23 -398.8)"/><path class="cls-3" d="M332.07,597.18v14.31H340a10.4,10.4,0,0,0,2.83-.31,4,4,0,0,0,1.7-1,3.48,3.48,0,0,0,.85-1.64,13.09,13.09,0,0,0,.32-2.35h1v12.6h-1a20.72,20.72,0,0,0-.46-2.59,3.77,3.77,0,0,0-.83-1.66,3.24,3.24,0,0,0-1.62-.87,11.56,11.56,0,0,0-2.79-.26h-7.93v12c0,.9,0,1.62,0,2.15a2.34,2.34,0,0,0,.32,1.22,1.32,1.32,0,0,0,.87.53,9.67,9.67,0,0,0,1.76.12h6.14c1,0,1.91,0,2.63-.08a8.89,8.89,0,0,0,1.85-.31,4.9,4.9,0,0,0,1.38-.66,11,11,0,0,0,1.27-1.06,20,20,0,0,0,3.39-5h1.08l-3.15,9.09H321.74v-1H323a5.25,5.25,0,0,0,1.08-.12,5.16,5.16,0,0,0,1-.34,3.3,3.3,0,0,0,.9-.58,2,2,0,0,0,.56-.83,12.47,12.47,0,0,0,.32-3.51V601.53c0-2.31-.23-3.74-.68-4.27a4.15,4.15,0,0,0-3.23-1.07h-1.28v-1h27.91v7.93H349a19,19,0,0,0-.86-3.13,4.36,4.36,0,0,0-1.21-1.81,3.81,3.81,0,0,0-1.94-.82,20.45,20.45,0,0,0-3-.18Z" transform="translate(-228.23 -398.8)"/><path class="cls-3" d="M389.68,631.43H380l-12.28-16.95-1.22.06c-.36,0-.68,0-1,0s-.5,0-.76,0l-.84-.06V625a13.9,13.9,0,0,0,.26,3,3.49,3.49,0,0,0,.76,1.63,2.06,2.06,0,0,0,1.19.66,9.41,9.41,0,0,0,1.58.12h1.43v1H353.65v-1H355a3.72,3.72,0,0,0,3.27-1.47,8.77,8.77,0,0,0,.56-4v-23.4c0-2.24-.26-3.64-.76-4.23a3.82,3.82,0,0,0-3.07-1.19h-1.39v-1h13.19a48.24,48.24,0,0,1,5,.22,16.36,16.36,0,0,1,3.47.66,10.29,10.29,0,0,1,2.55,1.21,9,9,0,0,1,2.1,1.88,8.75,8.75,0,0,1,1.41,2.45,8,8,0,0,1,.52,2.91,8.5,8.5,0,0,1-2.15,5.82,12.39,12.39,0,0,1-6.74,3.47l7.46,10.36c.87,1.2,1.65,2.18,2.33,3a10.9,10.9,0,0,0,2,1.84,7.6,7.6,0,0,0,2.15,1,15.94,15.94,0,0,0,2.69.48ZM364,612.81l.9,0,.62,0a15.51,15.51,0,0,0,4.54-.6,9.51,9.51,0,0,0,3.27-1.67,6.94,6.94,0,0,0,2-2.53,7.59,7.59,0,0,0,.66-3.17,8.37,8.37,0,0,0-.56-3.09,6.88,6.88,0,0,0-1.59-2.44,7.34,7.34,0,0,0-2.47-1.57,8.69,8.69,0,0,0-3.15-.56,22.41,22.41,0,0,0-4.19.52Z" transform="translate(-228.23 -398.8)"/><path class="cls-3" d="M421.47,594.39l.95,11.4h-.95q-1.64-5-4.65-7.27a11.84,11.84,0,0,0-7.31-2.25,12.26,12.26,0,0,0-10,4.72,15.52,15.52,0,0,0-2.67,5.22,22.34,22.34,0,0,0-.92,6.52,21.92,21.92,0,0,0,2,9.45,16.32,16.32,0,0,0,2.34,3.71,13.86,13.86,0,0,0,2.89,2.57,11.91,11.91,0,0,0,3.25,1.49,12.43,12.43,0,0,0,3.41.48,14.92,14.92,0,0,0,7.49-2V618a19,19,0,0,0-.1-2.21,5,5,0,0,0-.32-1.36,1.82,1.82,0,0,0-.54-.75,4.44,4.44,0,0,0-.75-.5,7.46,7.46,0,0,0-3-.44v-1h14v1H426a5.31,5.31,0,0,0-1.55.2,2,2,0,0,0-1.06.76,3.67,3.67,0,0,0-.6,1.59,16.48,16.48,0,0,0-.18,2.71V629a33.49,33.49,0,0,1-3.05,1.45,19.93,19.93,0,0,1-3,1,26.76,26.76,0,0,1-6.65.79,23.16,23.16,0,0,1-8.24-1.39,18.86,18.86,0,0,1-6.32-3.87,17.17,17.17,0,0,1-4.06-5.82,18.24,18.24,0,0,1-1.44-7.29,20.53,20.53,0,0,1,9.77-17.19,18.44,18.44,0,0,1,9.41-2.31c.72,0,1.35,0,1.91.06a14,14,0,0,1,1.74.24,17.39,17.39,0,0,1,1.95.52c.7.22,1.56.52,2.57.9a6,6,0,0,0,2,.55,1,1,0,0,0,.84-.46,3.42,3.42,0,0,0,.44-1.81Z" transform="translate(-228.23 -398.8)"/><path class="cls-3" d="M437.54,597.18v14.31h7.94a10.4,10.4,0,0,0,2.83-.31,4,4,0,0,0,1.69-1,3.49,3.49,0,0,0,.86-1.64,14.06,14.06,0,0,0,.32-2.35h1v12.6h-1a25.2,25.2,0,0,0-.46-2.59,3.67,3.67,0,0,0-.84-1.66,3.17,3.17,0,0,0-1.61-.87,11.56,11.56,0,0,0-2.79-.26h-7.94v12c0,.9,0,1.62,0,2.15a2.55,2.55,0,0,0,.32,1.22,1.34,1.34,0,0,0,.88.53,9.54,9.54,0,0,0,1.75.12h6.14c1,0,1.92,0,2.63-.08a9,9,0,0,0,1.86-.31,4.84,4.84,0,0,0,1.37-.66,11,11,0,0,0,1.28-1.06,20.51,20.51,0,0,0,3.39-5h1.07l-3.15,9.09h-27.9v-1h1.27a5.1,5.1,0,0,0,1.08-.12,5.46,5.46,0,0,0,1.06-.34,3.11,3.11,0,0,0,.89-.58,1.86,1.86,0,0,0,.56-.83,12.47,12.47,0,0,0,.32-3.51V601.53c0-2.31-.23-3.74-.68-4.27a4.13,4.13,0,0,0-3.23-1.07h-1.27v-1h27.9v7.93h-.63a21.17,21.17,0,0,0-.86-3.13,4.38,4.38,0,0,0-1.22-1.81,3.78,3.78,0,0,0-1.93-.82,20.64,20.64,0,0,0-3-.18Z" transform="translate(-228.23 -398.8)"/><path class="cls-3" d="M457.49,595.19h9.8l22.17,27.19V601.49a13.08,13.08,0,0,0-.26-2.91,3.46,3.46,0,0,0-.76-1.6,2.25,2.25,0,0,0-1.21-.65,8.15,8.15,0,0,0-1.64-.14h-1.27v-1H497v1h-1.31a8.31,8.31,0,0,0-1.68.15,2.17,2.17,0,0,0-1.19.72,3.72,3.72,0,0,0-.72,1.6,13.09,13.09,0,0,0-.24,2.83V632h-1L467,602.84v22.33a13.09,13.09,0,0,0,.26,2.93,3.59,3.59,0,0,0,.74,1.57,2,2,0,0,0,1.2.64,9.87,9.87,0,0,0,1.63.12h1.28v1h-12.6v-1h1.27a7.6,7.6,0,0,0,1.68-.16,2.23,2.23,0,0,0,1.21-.7,3.34,3.34,0,0,0,.74-1.57,13.15,13.15,0,0,0,.24-2.83V600c-.53-.63-1-1.14-1.33-1.51a9,9,0,0,0-1-.92,5.11,5.11,0,0,0-1-.6c-.37-.16-.83-.33-1.39-.52a9.2,9.2,0,0,0-2.35-.23Z" transform="translate(-228.23 -398.8)"/><path class="cls-3" d="M528.06,595.19v8.53h-.6q-.44-3.44-2-4.84a6.72,6.72,0,0,0-4.65-1.42h-5.1v27.71a12.32,12.32,0,0,0,.26,2.89,3.59,3.59,0,0,0,.73,1.57,2.11,2.11,0,0,0,1.2.66,9.18,9.18,0,0,0,1.68.14h1.23v1H505.45v-1h1.28a7.51,7.51,0,0,0,1.67-.16,2.17,2.17,0,0,0,1.2-.7,3.77,3.77,0,0,0,.74-1.57,12.36,12.36,0,0,0,.26-2.83V597.46h-4.35a14.62,14.62,0,0,0-2.89.26,5.17,5.17,0,0,0-2.17,1,4.76,4.76,0,0,0-1.46,1.91,9,9,0,0,0-.65,3.13h-1v-8.53Z" transform="translate(-228.23 -398.8)"/><path class="cls-3" d="M576.83,631.43h-9.65l-12.27-16.95-1.22.06c-.36,0-.68,0-1,0s-.49,0-.75,0l-.84-.06V625a13.29,13.29,0,0,0,.26,3,3.49,3.49,0,0,0,.76,1.63,2.06,2.06,0,0,0,1.19.66,9.41,9.41,0,0,0,1.58.12h1.43v1H540.79v-1h1.4a3.72,3.72,0,0,0,3.27-1.47,8.77,8.77,0,0,0,.56-4v-23.4c0-2.24-.26-3.64-.76-4.23a3.84,3.84,0,0,0-3.07-1.19h-1.4v-1H554a48.37,48.37,0,0,1,5,.22,16.36,16.36,0,0,1,3.47.66,10.46,10.46,0,0,1,2.55,1.21,8.9,8.9,0,0,1,3.51,4.33,8,8,0,0,1,.52,2.91,8.5,8.5,0,0,1-2.15,5.82,12.43,12.43,0,0,1-6.74,3.47l7.45,10.36c.88,1.2,1.66,2.18,2.34,3a10.6,10.6,0,0,0,2,1.84,7.47,7.47,0,0,0,2.15,1,15.94,15.94,0,0,0,2.69.48Zm-25.71-18.62.9,0,.61,0a15.53,15.53,0,0,0,4.55-.6,9.51,9.51,0,0,0,3.27-1.67,7,7,0,0,0,2-2.53,7.59,7.59,0,0,0,.66-3.17,8.37,8.37,0,0,0-.56-3.09,6.88,6.88,0,0,0-1.59-2.44,7.39,7.39,0,0,0-2.48-1.57,8.6,8.6,0,0,0-3.14-.56,22.31,22.31,0,0,0-4.19.52Z" transform="translate(-228.23 -398.8)"/><path class="cls-3" d="M586.49,597.18v14.31h7.93a10.35,10.35,0,0,0,2.83-.31,3.94,3.94,0,0,0,1.7-1,3.48,3.48,0,0,0,.85-1.64,13.09,13.09,0,0,0,.32-2.35h1v12.6h-1a23,23,0,0,0-.45-2.59,3.88,3.88,0,0,0-.84-1.66,3.24,3.24,0,0,0-1.62-.87,11.56,11.56,0,0,0-2.79-.26h-7.93v12c0,.9,0,1.62,0,2.15a2.44,2.44,0,0,0,.32,1.22,1.32,1.32,0,0,0,.87.53,9.67,9.67,0,0,0,1.76.12h6.14c1,0,1.91,0,2.63-.08a8.77,8.77,0,0,0,1.85-.31,4.9,4.9,0,0,0,1.38-.66,11.88,11.88,0,0,0,1.28-1.06,20.24,20.24,0,0,0,3.38-5h1.08l-3.15,9.09H576.16v-1h1.28a5.25,5.25,0,0,0,1.08-.12,5.16,5.16,0,0,0,1.05-.34,3.3,3.3,0,0,0,.9-.58,1.86,1.86,0,0,0,.56-.83,12.47,12.47,0,0,0,.32-3.51V601.53c0-2.31-.23-3.74-.68-4.27a4.15,4.15,0,0,0-3.23-1.07h-1.28v-1h27.91v7.93h-.64a19,19,0,0,0-.86-3.13,4.36,4.36,0,0,0-1.21-1.81,3.82,3.82,0,0,0-1.93-.82,20.64,20.64,0,0,0-3-.18Z" transform="translate(-228.23 -398.8)"/><path class="cls-3" d="M606.43,595.19h9.81l22.16,27.19V601.49a13.17,13.17,0,0,0-.25-2.91,3.56,3.56,0,0,0-.76-1.6,2.28,2.28,0,0,0-1.22-.65,8.05,8.05,0,0,0-1.63-.14h-1.28v-1H645.9v1h-1.32a8.28,8.28,0,0,0-1.67.15,2.2,2.2,0,0,0-1.2.72,3.6,3.6,0,0,0-.71,1.6,13.09,13.09,0,0,0-.24,2.83V632h-1l-23.88-29.19v22.33a13.09,13.09,0,0,0,.26,2.93,3.48,3.48,0,0,0,.74,1.57,2,2,0,0,0,1.19.64,10.08,10.08,0,0,0,1.64.12H621v1h-12.6v-1h1.28a7.6,7.6,0,0,0,1.68-.16,2.26,2.26,0,0,0,1.21-.7,3.43,3.43,0,0,0,.74-1.57,13.15,13.15,0,0,0,.24-2.83V600c-.53-.63-1-1.14-1.34-1.51a9.93,9.93,0,0,0-1-.92,5.11,5.11,0,0,0-1-.6c-.37-.16-.84-.33-1.4-.52a9.15,9.15,0,0,0-2.35-.23Z" transform="translate(-228.23 -398.8)"/><path class="cls-3" d="M656.79,597.18v14.31h7.94a10.4,10.4,0,0,0,2.83-.31,4,4,0,0,0,1.69-1,3.49,3.49,0,0,0,.86-1.64,14.06,14.06,0,0,0,.32-2.35h1v12.6h-1a25.2,25.2,0,0,0-.46-2.59,3.67,3.67,0,0,0-.84-1.66,3.17,3.17,0,0,0-1.61-.87,11.56,11.56,0,0,0-2.79-.26h-7.94v12c0,.9,0,1.62,0,2.15a2.55,2.55,0,0,0,.32,1.22,1.34,1.34,0,0,0,.88.53,9.54,9.54,0,0,0,1.75.12h6.14c1,0,1.92,0,2.63-.08a9,9,0,0,0,1.86-.31,4.84,4.84,0,0,0,1.37-.66,11,11,0,0,0,1.28-1.06,20.51,20.51,0,0,0,3.39-5h1.07l-3.15,9.09h-27.9v-1h1.27a5.1,5.1,0,0,0,1.08-.12,5.46,5.46,0,0,0,1.06-.34,3.11,3.11,0,0,0,.89-.58,1.86,1.86,0,0,0,.56-.83,12.47,12.47,0,0,0,.32-3.51V601.53c0-2.31-.23-3.74-.68-4.27a4.13,4.13,0,0,0-3.23-1.07h-1.27v-1h27.9v7.93h-.63a21.17,21.17,0,0,0-.86-3.13,4.38,4.38,0,0,0-1.22-1.81,3.78,3.78,0,0,0-1.93-.82,20.54,20.54,0,0,0-3-.18Z" transform="translate(-228.23 -398.8)"/><path class="cls-3" d="M711,594.39l1,11.4h-1q-1.63-5-4.64-7.27a11.89,11.89,0,0,0-7.32-2.25,12.26,12.26,0,0,0-10,4.72,15.52,15.52,0,0,0-2.67,5.22,22.34,22.34,0,0,0-.91,6.52,21.78,21.78,0,0,0,2,9.45,16,16,0,0,0,2.33,3.71,13.86,13.86,0,0,0,2.89,2.57A12,12,0,0,0,696,630a12.48,12.48,0,0,0,3.41.48,14.9,14.9,0,0,0,7.49-2V618a19,19,0,0,0-.1-2.21,5,5,0,0,0-.31-1.36,2,2,0,0,0-.54-.75,5,5,0,0,0-.76-.5,7.39,7.39,0,0,0-3-.44v-1h14v1h-.67a5.38,5.38,0,0,0-1.56.2,2,2,0,0,0-1.06.76,3.68,3.68,0,0,0-.59,1.59,16.48,16.48,0,0,0-.18,2.71V629c-1,.55-2.06,1-3,1.45a20.3,20.3,0,0,1-3,1,26.9,26.9,0,0,1-6.66.79,23.07,23.07,0,0,1-8.23-1.39,18.76,18.76,0,0,1-6.32-3.87,17.2,17.2,0,0,1-4.07-5.82,18.24,18.24,0,0,1-1.43-7.29,20.55,20.55,0,0,1,9.76-17.19,18.46,18.46,0,0,1,9.41-2.31q1.08,0,1.92.06a14.05,14.05,0,0,1,1.73.24,16.84,16.84,0,0,1,1.95.52c.71.22,1.56.52,2.57.9a6,6,0,0,0,2,.55,1,1,0,0,0,.84-.46,3.53,3.53,0,0,0,.43-1.81Z" transform="translate(-228.23 -398.8)"/><path class="cls-3" d="M740.69,619.31h-14l-2.47,5.7a9.23,9.23,0,0,0-.88,3.15,2.07,2.07,0,0,0,.14.8,1.45,1.45,0,0,0,.6.65,4.26,4.26,0,0,0,1.27.52,10.77,10.77,0,0,0,2.17.3v1h-11.4v-1a7.43,7.43,0,0,0,2.19-.6,4.29,4.29,0,0,0,1.44-1.09,7.68,7.68,0,0,0,1.1-1.82l1.21-2.75,12.76-29.78h.92l12.59,30.1a25.07,25.07,0,0,0,1.42,3,7.42,7.42,0,0,0,1.35,1.77,3.87,3.87,0,0,0,1.52.88,8.17,8.17,0,0,0,2,.28v1H740.25v-1a5.18,5.18,0,0,0,2.93-.7,1.85,1.85,0,0,0,.78-1.49,13.23,13.23,0,0,0-1.08-3.75Zm-.76-2-6.14-14.63-6.3,14.63Z" transform="translate(-228.23 -398.8)"/><path class="cls-3" d="M754.77,631.43v-1h1.4a7.32,7.32,0,0,0,1.63-.16,2.09,2.09,0,0,0,1.2-.72,3.93,3.93,0,0,0,.74-1.63A13.24,13.24,0,0,0,760,625v-23.4c0-2.24-.25-3.64-.75-4.23a3.85,3.85,0,0,0-3.07-1.19h-1.4v-1h14.75q8.06,0,12.36,1.87a14.8,14.8,0,0,1,6.82,6.14,19,19,0,0,1,2.59,9.93,20.13,20.13,0,0,1-1.3,7.37,15.52,15.52,0,0,1-3.86,5.78,17.8,17.8,0,0,1-6.36,3.79,26,26,0,0,1-8.81,1.36Zm10.37-2.63a26.18,26.18,0,0,0,5.66.75,14.39,14.39,0,0,0,5.7-1.13,13.49,13.49,0,0,0,4.56-3.23,15,15,0,0,0,3-5.08,19.41,19.41,0,0,0,1.1-6.7,19.93,19.93,0,0,0-1.08-6.76,14.53,14.53,0,0,0-3-5.1,13.08,13.08,0,0,0-4.62-3.21,15,15,0,0,0-5.86-1.12,22.41,22.41,0,0,0-5.46.8Z" transform="translate(-228.23 -398.8)"/><path class="cls-3" d="M803.5,597.18v14.31h7.93a10.4,10.4,0,0,0,2.83-.31,4,4,0,0,0,1.7-1,3.48,3.48,0,0,0,.85-1.64,13.09,13.09,0,0,0,.32-2.35h1v12.6h-1a20.72,20.72,0,0,0-.46-2.59,3.77,3.77,0,0,0-.83-1.66,3.24,3.24,0,0,0-1.62-.87,11.56,11.56,0,0,0-2.79-.26H803.5v12c0,.9,0,1.62,0,2.15a2.34,2.34,0,0,0,.32,1.22,1.32,1.32,0,0,0,.87.53,9.67,9.67,0,0,0,1.76.12h6.14c1,0,1.91,0,2.63-.08a8.89,8.89,0,0,0,1.85-.31,4.9,4.9,0,0,0,1.38-.66,11,11,0,0,0,1.27-1.06,20,20,0,0,0,3.39-5h1.08l-3.15,9.09H793.17v-1h1.28a5.25,5.25,0,0,0,1.08-.12,5.16,5.16,0,0,0,1.05-.34,3.3,3.3,0,0,0,.9-.58,2,2,0,0,0,.56-.83,12.47,12.47,0,0,0,.32-3.51V601.53c0-2.31-.23-3.74-.68-4.27a4.15,4.15,0,0,0-3.23-1.07h-1.28v-1h27.91v7.93h-.64a19,19,0,0,0-.86-3.13,4.36,4.36,0,0,0-1.21-1.81,3.81,3.81,0,0,0-1.94-.82,20.45,20.45,0,0,0-3-.18Z" transform="translate(-228.23 -398.8)"/><path class="cls-4" d="M484.5,515.22c1.74.71,5.77,2.77,12.79,8.35q2.18,1.7,4.41,3.64-2.24-2-4.41-3.64c2.93,2.33,6.37,5.26,10.39,9,2.63,2.42,5.11,4.82,7.34,7,.43-.48,4.88-5.39,11.21-11.66-11.77-11.67-30-28-40.91-29.14-12.53-1.28-26.1,1.16-35,10.67C455.64,508.08,468.05,506.56,484.5,515.22Z" transform="translate(-228.23 -398.8)"/><path class="cls-5" d="M486.89,562.88a16.6,16.6,0,0,1-3.37,1.51,42,42,0,0,1-4.3.22c-4.79,0-11.47-.84-16.08-4.86-4.42-3.85-6.67-10.62-6.67-20.12s2.25-16.27,6.67-20.13c4.61-4,11.29-4.85,16.08-4.85a42,42,0,0,1,4.3.22,7.31,7.31,0,0,1,1,.35c-16.45-8.66-28.86-7.14-34.21-5.76-6.06,6.45-10,16.16-10,30.17s4,23.91,10.17,30.36C456.18,571.42,469.45,572.88,486.89,562.88Z" transform="translate(-228.23 -398.8)"/><path class="cls-6" d="M602.14,509.42c-5.39-1.36-17.61-2.76-33.76,5.63a4.94,4.94,0,0,1,.56-.18,42,42,0,0,1,4.3-.22c4.79,0,11.47.84,16.07,4.85,4.43,3.86,6.67,10.63,6.67,20.13s-2.24,16.27-6.67,20.12c-4.6,4-11.28,4.86-16.07,4.86a42,42,0,0,1-4.3-.22,11.64,11.64,0,0,1-2-.81c16.68,9.15,29.38,7.83,35,6.45,6.19-6.45,10.21-16.23,10.21-30.4S608.22,515.88,602.14,509.42Z" transform="translate(-228.23 -398.8)"/><path class="cls-7" d="M566.93,563.58a54.46,54.46,0,0,1-8.35-5.28c-2.51-1.79-5.08-3.81-7.71-6.11,2.63,2.3,5.2,4.32,7.71,6.11A162.33,162.33,0,0,1,545,546.87c-2.68-2.47-5.23-4.93-7.51-7.2-.42.47-4.88,5.39-11.21,11.66,11.77,11.67,30,28,40.91,29.14C579.56,581.74,593,579.34,602,570,596.31,571.41,583.61,572.73,566.93,563.58Z" transform="translate(-228.23 -398.8)"/><path class="cls-8" d="M567.14,498.79c-10.88,1.12-29.14,17.47-40.91,29.14-6.33,6.27-10.78,11.18-11.21,11.66l0,0,0,0c-2.29,2.27-4.83,4.73-7.51,7.2a140,140,0,0,1-17.22,14c-1.35.88-2.48,1.55-3.4,2.06-17.44,10-30.71,8.54-36.42,7.11,8.94,9.35,22.41,11.75,34.85,10.48,10.88-1.12,29.14-17.47,40.91-29.14,6.33-6.27,10.79-11.19,11.21-11.66l0,0a.08.08,0,0,1,0,0c2.23-2.22,4.71-4.62,7.34-7,14.55-13.45,21.6-16.76,23.6-17.5,16.15-8.39,28.37-7,33.76-5.63C593.2,500,579.65,497.51,567.14,498.79Z" transform="translate(-228.23 -398.8)"/><path class="cls-9" d="M569.71,478.25A100.09,100.09,0,0,0,577,451.08c.52-4.21,1.3-10.68-1.81-13.58-2.74-2.55-6.67-.95-10.09.57a27.29,27.29,0,0,0-8.92,5.77,16.89,16.89,0,0,1-4.53,3.62c-1.56.64-3.62.91-2.72-.9,2.72-5.43,5.13-9.67,8.15-16.3,1.38-3,4.38-8.1,4.48-11.44s-1.21-6.88-4-8.66c-3.72-2.36-9.86-2.17-14-.72s-8.15,4.52-10,5.43-.9-.91,1.81-4.53c3.62-4.53,13.26-11.22,23.87-11.53S580,404.33,586,413.06a38.7,38.7,0,0,1,6.5,14,47.41,47.41,0,0,1-2.88,28.55c-4.24,9.72-12,15.59-19.92,22.64" transform="translate(-228.23 -398.8)"/><circle class="cls-10" cx="316.58" cy="24.67" r="8.6"/><path class="cls-11" d="M527.15,456.52c0-.78,1-6,1.13-6.76.53-2.31-.67-2.7-2.84-.69a72.76,72.76,0,0,0-10.05,12.55c-3.38,5.23-5.08,11.74-3.85,17.85,1.51,7.5,8.06,13,12,19.6,3.06,5.1,4.26,11.07,5,17,4.41-7.32,11-13,17.35-18.75s13.26-12,16.55-19.94c3.45-8.24,3.63-17.2,2.72-26.26-.16-1.59-1.21-4-2.72-4.52-1.14-.43-2.17.72-2.71,1.81-.91,1.81-1.54,7-1.81,8.15-.93,4.13-.54,3.66-2.42,8.8-1.67,4.58-3.46,8.3-8,10.42-4.13,1.94-10.74,1.26-14.47-1.39l-.17-.12c-4.15-3-5.77-7.75-5.81-13.26C527.11,461,527.08,458.08,527.15,456.52Z" transform="translate(-228.23 -398.8)"/><circle class="cls-12" cx="313.41" cy="60.43" r="9.96"/><circle class="cls-13" cx="270.86" cy="14.26" r="12.68"/><path class="cls-14" d="M484.74,431.17c3.23,2.16,11.11,3.53,15.1,3.18,8.25-.72,15.71-4.3,22.59-8.8,1.15-.76,2.64-1.85,3.86-1.22,2.82,1.46,1.42,6-.23,8.24-5,6.85-10.84,13-15.34,20.17s-7.6,15.7-6.12,24c1.07,6,5.31,11.33,8.57,16.49,5.23,8.27,7.75,15.63,13,23.9-3.07-2.7-6-6.57-8.95-9.55-4.07-4.18-8-7.49-12-11.11-5.17-4.69-10.39-7.6-15.95-12.48-4.28-3.77-9.48-7.54-13.42-11.66a71.31,71.31,0,0,1-14.8-23.3c-3.19-8.42-2.66-20.21,1.28-28.31,3.29-6.78,10.54-15.83,14.49-16.53,1.7-.29,3.27.15,3.17,1.87s-.91,4.76-1,6.55c-.13,4.44-.73,8.58,1.08,13.1A10.79,10.79,0,0,0,484.74,431.17Z" transform="translate(-228.23 -398.8)"/></svg>